<?xml version="1.0" encoding="UTF-8" standalone="no"?>
<!DOCTYPE svg PUBLIC "-//W3C//DTD SVG 1.1//EN"
 "http://www.w3.org/Graphics/SVG/1.1/DTD/svg11.dtd">
<!-- Generated by graphviz version 2.43.0 (0)
 -->
<!-- Title: %3 Pages: 1 -->
<svg width="1125pt" height="260pt"
 viewBox="0.00 0.00 1124.81 260.00" xmlns="http://www.w3.org/2000/svg" xmlns:xlink="http://www.w3.org/1999/xlink">
<g id="graph0" class="graph" transform="scale(1 1) rotate(0) translate(4 256)">
<title>%3</title>
<polygon fill="white" stroke="transparent" points="-4,4 -4,-256 1120.81,-256 1120.81,4 -4,4"/>
<!-- /stacks/analytics/glue_connections -->
<g id="node1" class="node">
<title>/stacks/analytics/glue_connections</title>
<ellipse fill="none" stroke="black" cx="432.68" cy="-162" rx="185.77" ry="18"/>
<text text-anchor="middle" x="432.68" y="-158.3" font-family="Times,serif" font-size="14.00">/stacks/analytics/glue_connections</text>
</g>
<!-- /stacks/external/ssm/datalake/networking -->
<g id="node2" class="node">
<title>/stacks/external/ssm/datalake/networking</title>
<ellipse fill="none" stroke="black" cx="219.68" cy="-90" rx="219.86" ry="18"/>
<text text-anchor="middle" x="219.68" y="-86.3" font-family="Times,serif" font-size="14.00">/stacks/external/ssm/datalake/networking</text>
</g>
<!-- /stacks/analytics/glue_connections&#45;&gt;/stacks/external/ssm/datalake/networking -->
<g id="edge1" class="edge">
<title>/stacks/analytics/glue_connections&#45;&gt;/stacks/external/ssm/datalake/networking</title>
<path fill="none" stroke="black" d="M382.74,-144.59C351.99,-134.48 312.36,-121.46 279.88,-110.78"/>
<polygon fill="black" stroke="black" points="280.64,-107.35 270.04,-107.55 278.45,-114 280.64,-107.35"/>
</g>
<!-- /stacks/security -->
<g id="node3" class="node">
<title>/stacks/security</title>
<ellipse fill="none" stroke="black" cx="557.68" cy="-90" rx="99.38" ry="18"/>
<text text-anchor="middle" x="557.68" y="-86.3" font-family="Times,serif" font-size="14.00">/stacks/security</text>
</g>
<!-- /stacks/analytics/glue_connections&#45;&gt;/stacks/security -->
<g id="edge2" class="edge">
<title>/stacks/analytics/glue_connections&#45;&gt;/stacks/security</title>
<path fill="none" stroke="black" d="M462.62,-144.23C479.67,-134.68 501.21,-122.62 519.48,-112.39"/>
<polygon fill="black" stroke="black" points="521.4,-115.33 528.42,-107.39 517.98,-109.22 521.4,-115.33"/>
</g>
<!-- /stacks/external/ssm/datalake/security -->
<g id="node5" class="node">
<title>/stacks/external/ssm/datalake/security</title>
<ellipse fill="none" stroke="black" cx="620.68" cy="-18" rx="204.96" ry="18"/>
<text text-anchor="middle" x="620.68" y="-14.3" font-family="Times,serif" font-size="14.00">/stacks/external/ssm/datalake/security</text>
</g>
<!-- /stacks/security&#45;&gt;/stacks/external/ssm/datalake/security -->
<g id="edge8" class="edge">
<title>/stacks/security&#45;&gt;/stacks/external/ssm/datalake/security</title>
<path fill="none" stroke="black" d="M572.93,-72.05C580.56,-63.58 589.93,-53.17 598.35,-43.82"/>
<polygon fill="black" stroke="black" points="601.04,-46.05 605.13,-36.28 595.84,-41.37 601.04,-46.05"/>
</g>
<!-- /stacks/analytics/glue_jobs -->
<g id="node4" class="node">
<title>/stacks/analytics/glue_jobs</title>
<ellipse fill="none" stroke="black" cx="646.68" cy="-234" rx="149.47" ry="18"/>
<text text-anchor="middle" x="646.68" y="-230.3" font-family="Times,serif" font-size="14.00">/stacks/analytics/glue_jobs</text>
</g>
<!-- /stacks/analytics/glue_jobs&#45;&gt;/stacks/analytics/glue_connections -->
<g id="edge7" class="edge">
<title>/stacks/analytics/glue_jobs&#45;&gt;/stacks/analytics/glue_connections</title>
<path fill="none" stroke="black" d="M597.58,-216.94C566.25,-206.69 525.43,-193.34 492.25,-182.48"/>
<polygon fill="black" stroke="black" points="493.25,-179.13 482.66,-179.35 491.08,-185.78 493.25,-179.13"/>
</g>
<!-- /stacks/analytics/glue_jobs&#45;&gt;/stacks/external/ssm/datalake/networking -->
<g id="edge4" class="edge">
<title>/stacks/analytics/glue_jobs&#45;&gt;/stacks/external/ssm/datalake/networking</title>
<path fill="none" stroke="black" d="M498.53,-231.48C397.29,-227.24 274.97,-214.75 237.68,-180 221.06,-164.51 217.45,-138.26 217.46,-118.27"/>
<polygon fill="black" stroke="black" points="220.97,-118.3 217.77,-108.2 213.97,-118.09 220.97,-118.3"/>
</g>
<!-- /stacks/analytics/glue_jobs&#45;&gt;/stacks/security -->
<g id="edge6" class="edge">
<title>/stacks/analytics/glue_jobs&#45;&gt;/stacks/security</title>
<path fill="none" stroke="black" d="M646.51,-215.94C645.57,-196.98 641.76,-166.13 627.68,-144 619.91,-131.79 608.28,-121.34 596.71,-113.04"/>
<polygon fill="black" stroke="black" points="598.6,-110.09 588.36,-107.37 594.67,-115.88 598.6,-110.09"/>
</g>
<!-- /stacks/analytics/glue_jobs&#45;&gt;/stacks/external/ssm/datalake/security -->
<g id="edge3" class="edge">
<title>/stacks/analytics/glue_jobs&#45;&gt;/stacks/external/ssm/datalake/security</title>
<path fill="none" stroke="black" d="M653.67,-215.95C664.92,-185.89 684.02,-121.93 665.68,-72 661.83,-61.52 654.9,-51.7 647.6,-43.43"/>
<polygon fill="black" stroke="black" points="650,-40.87 640.59,-36 644.91,-45.67 650,-40.87"/>
</g>
<!-- /stacks/external/ssm/datalake/storage -->
<g id="node6" class="node">
<title>/stacks/external/ssm/datalake/storage</title>
<ellipse fill="none" stroke="black" cx="914.68" cy="-162" rx="202.26" ry="18"/>
<text text-anchor="middle" x="914.68" y="-158.3" font-family="Times,serif" font-size="14.00">/stacks/external/ssm/datalake/storage</text>
</g>
<!-- /stacks/analytics/glue_jobs&#45;&gt;/stacks/external/ssm/datalake/storage -->
<g id="edge5" class="edge">
<title>/stacks/analytics/glue_jobs&#45;&gt;/stacks/external/ssm/datalake/storage</title>
<path fill="none" stroke="black" d="M706.16,-217.46C746.5,-206.93 800.06,-192.94 842.8,-181.78"/>
<polygon fill="black" stroke="black" points="843.78,-185.14 852.58,-179.22 842.02,-178.36 843.78,-185.14"/>
</g>
</g>
</svg>
