<?xml version="1.0" encoding="UTF-8" standalone="no"?>
<!DOCTYPE svg PUBLIC "-//W3C//DTD SVG 1.1//EN"
 "http://www.w3.org/Graphics/SVG/1.1/DTD/svg11.dtd">
<!-- Generated by graphviz version 2.43.0 (0)
 -->
<!-- Title: %3 Pages: 1 -->
<svg width="769pt" height="188pt"
 viewBox="0.00 0.00 769.41 188.00" xmlns="http://www.w3.org/2000/svg" xmlns:xlink="http://www.w3.org/1999/xlink">
<g id="graph0" class="graph" transform="scale(1 1) rotate(0) translate(4 184)">
<title>%3</title>
<polygon fill="white" stroke="transparent" points="-4,4 -4,-184 765.41,-184 765.41,4 -4,4"/>
<!-- /stacks/analytics/glue_connections -->
<g id="node1" class="node">
<title>/stacks/analytics/glue_connections</title>
<ellipse fill="none" stroke="black" cx="387.68" cy="-162" rx="185.77" ry="18"/>
<text text-anchor="middle" x="387.68" y="-158.3" font-family="Times,serif" font-size="14.00">/stacks/analytics/glue_connections</text>
</g>
<!-- /stacks/external/ssm/datalake/networking -->
<g id="node2" class="node">
<title>/stacks/external/ssm/datalake/networking</title>
<ellipse fill="none" stroke="black" cx="219.68" cy="-90" rx="219.86" ry="18"/>
<text text-anchor="middle" x="219.68" y="-86.3" font-family="Times,serif" font-size="14.00">/stacks/external/ssm/datalake/networking</text>
</g>
<!-- /stacks/analytics/glue_connections&#45;&gt;/stacks/external/ssm/datalake/networking -->
<g id="edge1" class="edge">
<title>/stacks/analytics/glue_connections&#45;&gt;/stacks/external/ssm/datalake/networking</title>
<path fill="none" stroke="black" d="M347.87,-144.41C324.29,-134.59 294.23,-122.06 269.14,-111.61"/>
<polygon fill="black" stroke="black" points="270.37,-108.33 259.79,-107.71 267.68,-114.79 270.37,-108.33"/>
</g>
<!-- /stacks/security -->
<g id="node3" class="node">
<title>/stacks/security</title>
<ellipse fill="none" stroke="black" cx="556.68" cy="-90" rx="99.38" ry="18"/>
<text text-anchor="middle" x="556.68" y="-86.3" font-family="Times,serif" font-size="14.00">/stacks/security</text>
</g>
<!-- /stacks/analytics/glue_connections&#45;&gt;/stacks/security -->
<g id="edge2" class="edge">
<title>/stacks/analytics/glue_connections&#45;&gt;/stacks/security</title>
<path fill="none" stroke="black" d="M427.73,-144.41C452.14,-134.3 483.46,-121.33 509.13,-110.7"/>
<polygon fill="black" stroke="black" points="510.76,-113.81 518.66,-106.75 508.08,-107.34 510.76,-113.81"/>
</g>
<!-- /stacks/external/ssm/datalake/security -->
<g id="node4" class="node">
<title>/stacks/external/ssm/datalake/security</title>
<ellipse fill="none" stroke="black" cx="556.68" cy="-18" rx="204.96" ry="18"/>
<text text-anchor="middle" x="556.68" y="-14.3" font-family="Times,serif" font-size="14.00">/stacks/external/ssm/datalake/security</text>
</g>
<!-- /stacks/security&#45;&gt;/stacks/external/ssm/datalake/security -->
<g id="edge3" class="edge">
<title>/stacks/security&#45;&gt;/stacks/external/ssm/datalake/security</title>
<path fill="none" stroke="black" d="M556.68,-71.7C556.68,-63.98 556.68,-54.71 556.68,-46.11"/>
<polygon fill="black" stroke="black" points="560.18,-46.1 556.68,-36.1 553.18,-46.1 560.18,-46.1"/>
</g>
</g>
</svg>
