<?xml version="1.0" encoding="UTF-8" standalone="no"?>
<!DOCTYPE svg PUBLIC "-//W3C//DTD SVG 1.1//EN"
 "http://www.w3.org/Graphics/SVG/1.1/DTD/svg11.dtd">
<!-- Generated by graphviz version 2.43.0 (0)
 -->
<!-- Title: %3 Pages: 1 -->
<svg width="1987pt" height="260pt"
 viewBox="0.00 0.00 1987.01 260.00" xmlns="http://www.w3.org/2000/svg" xmlns:xlink="http://www.w3.org/1999/xlink">
<g id="graph0" class="graph" transform="scale(1 1) rotate(0) translate(4 256)">
<title>%3</title>
<polygon fill="white" stroke="transparent" points="-4,4 -4,-256 1983.01,-256 1983.01,4 -4,4"/>
<!-- stacks/analytics/glue_connections -->
<g id="node1" class="node">
<title>stacks/analytics/glue_connections</title>
<ellipse fill="none" stroke="black" cx="279.72" cy="-162" rx="167.07" ry="18"/>
<text text-anchor="middle" x="279.72" y="-158.3" font-family="Times,serif" font-size="14.00">stacks/analytics/glue_connections</text>
</g>
<!-- stacks/external/ssm/datalake/networking -->
<g id="node2" class="node">
<title>stacks/external/ssm/datalake/networking</title>
<ellipse fill="none" stroke="black" cx="225.72" cy="-90" rx="200.66" ry="18"/>
<text text-anchor="middle" x="225.72" y="-86.3" font-family="Times,serif" font-size="14.00">stacks/external/ssm/datalake/networking</text>
</g>
<!-- stacks/analytics/glue_connections&#45;&gt;stacks/external/ssm/datalake/networking -->
<g id="edge1" class="edge">
<title>stacks/analytics/glue_connections&#45;&gt;stacks/external/ssm/datalake/networking</title>
<path fill="none" stroke="black" d="M266.65,-144.05C260.24,-135.75 252.4,-125.58 245.3,-116.38"/>
<polygon fill="black" stroke="black" points="247.92,-114.06 239.04,-108.28 242.38,-118.33 247.92,-114.06"/>
</g>
<!-- stacks/security -->
<g id="node3" class="node">
<title>stacks/security</title>
<ellipse fill="none" stroke="black" cx="524.72" cy="-90" rx="80.69" ry="18"/>
<text text-anchor="middle" x="524.72" y="-86.3" font-family="Times,serif" font-size="14.00">stacks/security</text>
</g>
<!-- stacks/analytics/glue_connections&#45;&gt;stacks/security -->
<g id="edge2" class="edge">
<title>stacks/analytics/glue_connections&#45;&gt;stacks/security</title>
<path fill="none" stroke="black" d="M335.62,-145.03C374.94,-133.79 427.41,-118.8 467.1,-107.46"/>
<polygon fill="black" stroke="black" points="468.25,-110.77 476.9,-104.66 466.33,-104.04 468.25,-110.77"/>
</g>
<!-- stacks/external/ssm/datalake/security -->
<g id="node7" class="node">
<title>stacks/external/ssm/datalake/security</title>
<ellipse fill="none" stroke="black" cx="667.72" cy="-18" rx="185.77" ry="18"/>
<text text-anchor="middle" x="667.72" y="-14.3" font-family="Times,serif" font-size="14.00">stacks/external/ssm/datalake/security</text>
</g>
<!-- stacks/security&#45;&gt;stacks/external/ssm/datalake/security -->
<g id="edge11" class="edge">
<title>stacks/security&#45;&gt;stacks/external/ssm/datalake/security</title>
<path fill="none" stroke="black" d="M556.81,-73.29C576.77,-63.52 602.69,-50.83 624.45,-40.18"/>
<polygon fill="black" stroke="black" points="626.05,-43.3 633.49,-35.76 622.97,-37.01 626.05,-43.3"/>
</g>
<!-- stacks/analytics/glue_crawlers -->
<g id="node4" class="node">
<title>stacks/analytics/glue_crawlers</title>
<ellipse fill="none" stroke="black" cx="685.72" cy="-234" rx="151.37" ry="18"/>
<text text-anchor="middle" x="685.72" y="-230.3" font-family="Times,serif" font-size="14.00">stacks/analytics/glue_crawlers</text>
</g>
<!-- stacks/external/ssm/datalake/storage -->
<g id="node5" class="node">
<title>stacks/external/ssm/datalake/storage</title>
<ellipse fill="none" stroke="black" cx="685.72" cy="-162" rx="183.07" ry="18"/>
<text text-anchor="middle" x="685.72" y="-158.3" font-family="Times,serif" font-size="14.00">stacks/external/ssm/datalake/storage</text>
</g>
<!-- stacks/analytics/glue_crawlers&#45;&gt;stacks/external/ssm/datalake/storage -->
<g id="edge3" class="edge">
<title>stacks/analytics/glue_crawlers&#45;&gt;stacks/external/ssm/datalake/storage</title>
<path fill="none" stroke="black" d="M685.72,-215.7C685.72,-207.98 685.72,-198.71 685.72,-190.11"/>
<polygon fill="black" stroke="black" points="689.22,-190.1 685.72,-180.1 682.22,-190.1 689.22,-190.1"/>
</g>
<!-- stacks/analytics/glue_jobs -->
<g id="node6" class="node">
<title>stacks/analytics/glue_jobs</title>
<ellipse fill="none" stroke="black" cx="279.72" cy="-234" rx="130.78" ry="18"/>
<text text-anchor="middle" x="279.72" y="-230.3" font-family="Times,serif" font-size="14.00">stacks/analytics/glue_jobs</text>
</g>
<!-- stacks/analytics/glue_jobs&#45;&gt;stacks/analytics/glue_connections -->
<g id="edge8" class="edge">
<title>stacks/analytics/glue_jobs&#45;&gt;stacks/analytics/glue_connections</title>
<path fill="none" stroke="black" d="M279.72,-215.7C279.72,-207.98 279.72,-198.71 279.72,-190.11"/>
<polygon fill="black" stroke="black" points="283.22,-190.1 279.72,-180.1 276.22,-190.1 283.22,-190.1"/>
</g>
<!-- stacks/analytics/glue_jobs&#45;&gt;stacks/external/ssm/datalake/networking -->
<g id="edge5" class="edge">
<title>stacks/analytics/glue_jobs&#45;&gt;stacks/external/ssm/datalake/networking</title>
<path fill="none" stroke="black" d="M172.99,-223.47C146.21,-215.69 120.37,-202.41 103.72,-180 94.17,-167.16 94.94,-157.38 103.72,-144 113.3,-129.39 127.87,-118.79 143.65,-111.1"/>
<polygon fill="black" stroke="black" points="145.35,-114.17 153.05,-106.9 142.49,-107.78 145.35,-114.17"/>
</g>
<!-- stacks/analytics/glue_jobs&#45;&gt;stacks/security -->
<g id="edge7" class="edge">
<title>stacks/analytics/glue_jobs&#45;&gt;stacks/security</title>
<path fill="none" stroke="black" d="M360.13,-219.8C391.88,-211.88 427.44,-199.42 455.72,-180 479.37,-163.75 498.58,-136.89 510.67,-116.91"/>
<polygon fill="black" stroke="black" points="513.84,-118.41 515.86,-108.01 507.8,-114.88 513.84,-118.41"/>
</g>
<!-- stacks/analytics/glue_jobs&#45;&gt;stacks/external/ssm/datalake/storage -->
<g id="edge6" class="edge">
<title>stacks/analytics/glue_jobs&#45;&gt;stacks/external/ssm/datalake/storage</title>
<path fill="none" stroke="black" d="M358,-219.5C423.89,-208.14 518.39,-191.85 589,-179.67"/>
<polygon fill="black" stroke="black" points="589.98,-183.06 599.24,-177.91 588.79,-176.16 589.98,-183.06"/>
</g>
<!-- stacks/analytics/glue_jobs&#45;&gt;stacks/external/ssm/datalake/security -->
<g id="edge4" class="edge">
<title>stacks/analytics/glue_jobs&#45;&gt;stacks/external/ssm/datalake/security</title>
<path fill="none" stroke="black" d="M210.5,-218.62C111.75,-195.18 -50.69,-144.03 15.72,-72 46.53,-38.58 293.8,-26.23 474.75,-21.67"/>
<polygon fill="black" stroke="black" points="475.02,-25.17 484.93,-21.42 474.85,-18.17 475.02,-25.17"/>
</g>
<!-- stacks/analytics/ssm_parameters -->
<g id="node8" class="node">
<title>stacks/analytics/ssm_parameters</title>
<ellipse fill="none" stroke="black" cx="1018.72" cy="-234" rx="163.57" ry="18"/>
<text text-anchor="middle" x="1018.72" y="-230.3" font-family="Times,serif" font-size="14.00">stacks/analytics/ssm_parameters</text>
</g>
<!-- stacks/application/api_gateway -->
<g id="node9" class="node">
<title>stacks/application/api_gateway</title>
<ellipse fill="none" stroke="black" cx="1354.72" cy="-234" rx="154.87" ry="18"/>
<text text-anchor="middle" x="1354.72" y="-230.3" font-family="Times,serif" font-size="14.00">stacks/application/api_gateway</text>
</g>
<!-- stacks/compute/lambda_dependencies -->
<g id="node10" class="node">
<title>stacks/compute/lambda_dependencies</title>
<ellipse fill="none" stroke="black" cx="810.72" cy="-90" rx="187.67" ry="18"/>
<text text-anchor="middle" x="810.72" y="-86.3" font-family="Times,serif" font-size="14.00">stacks/compute/lambda_dependencies</text>
</g>
<!-- stacks/compute/lambda_dependencies&#45;&gt;stacks/external/ssm/datalake/security -->
<g id="edge9" class="edge">
<title>stacks/compute/lambda_dependencies&#45;&gt;stacks/external/ssm/datalake/security</title>
<path fill="none" stroke="black" d="M776.47,-72.23C756.89,-62.65 732.14,-50.54 711.2,-40.29"/>
<polygon fill="black" stroke="black" points="712.71,-37.13 702.19,-35.87 709.63,-43.41 712.71,-37.13"/>
</g>
<!-- stacks/compute/lambdas -->
<g id="node11" class="node">
<title>stacks/compute/lambdas</title>
<ellipse fill="none" stroke="black" cx="1651.72" cy="-234" rx="124.58" ry="18"/>
<text text-anchor="middle" x="1651.72" y="-230.3" font-family="Times,serif" font-size="14.00">stacks/compute/lambdas</text>
</g>
<!-- stacks/database -->
<g id="node12" class="node">
<title>stacks/database</title>
<ellipse fill="none" stroke="black" cx="1101.72" cy="-90" rx="85.29" ry="18"/>
<text text-anchor="middle" x="1101.72" y="-86.3" font-family="Times,serif" font-size="14.00">stacks/database</text>
</g>
<!-- stacks/database&#45;&gt;stacks/external/ssm/datalake/security -->
<g id="edge10" class="edge">
<title>stacks/database&#45;&gt;stacks/external/ssm/datalake/security</title>
<path fill="none" stroke="black" d="M1039.82,-77.58C1029.12,-75.68 1018.1,-73.75 1007.72,-72 929.69,-58.86 841.39,-45.13 774.33,-34.94"/>
<polygon fill="black" stroke="black" points="774.59,-31.44 764.18,-33.4 773.54,-38.36 774.59,-31.44"/>
</g>
<!-- stacks/operations -->
<g id="node13" class="node">
<title>stacks/operations</title>
<ellipse fill="none" stroke="black" cx="1886.72" cy="-234" rx="92.08" ry="18"/>
<text text-anchor="middle" x="1886.72" y="-230.3" font-family="Times,serif" font-size="14.00">stacks/operations</text>
</g>
<!-- stacks/storage -->
<g id="node14" class="node">
<title>stacks/storage</title>
<ellipse fill="none" stroke="black" cx="964.72" cy="-162" rx="77.99" ry="18"/>
<text text-anchor="middle" x="964.72" y="-158.3" font-family="Times,serif" font-size="14.00">stacks/storage</text>
</g>
<!-- stacks/storage&#45;&gt;stacks/security -->
<g id="edge12" class="edge">
<title>stacks/storage&#45;&gt;stacks/security</title>
<path fill="none" stroke="black" d="M908.18,-149.46C898.05,-147.54 887.59,-145.64 877.72,-144 760.89,-124.64 730.58,-127.12 613.72,-108 607.04,-106.91 600.1,-105.7 593.16,-104.45"/>
<polygon fill="black" stroke="black" points="593.51,-100.96 583.05,-102.6 592.25,-107.85 593.51,-100.96"/>
</g>
</g>
</svg>
